PathFileType	4	(x/y/z)	S06_BK_Cal_T01
DataRate	CameraRate	NumFrames	NumMarkers	Units	OrigDataRate	OrigDataStartFrame	OrigNumFrames
240	240	5	51	mm	240	361	2880
Frame#	Time	Sternum			R.Acromium			L.Acromium			Top.Head			R.ASIS			L.ASIS			R.PSIS			L.PSIS			R.Great.Tro			L.Great.Tro			R.Iliac.Crest			L.Iliac.Crest			V.Sacral			R.Thigh.Upper.Post			R.Thigh.Lower.Ant			R.Thigh.Lower.Post			R.Thigh.Upper.Ant			R.Knee.Lat			R.Knee.Med			R.Shank.Upper.Post			R.Shank.Lower.Ant			R.Shank.Lower.Post			R.Shank.Upper.Ant			R.Ankle.Lat			R.Ankle.Med			R.Heel.Upper			R.Heel.Med			R.Heel.Lat			R.Toe.Lat			R.Toe.Med			R.Toe.Tip			L.Thigh.Upper.Post			L.Thigh.Lower.Ant			L.Thigh.Lower.Post			L.Thigh.Upper.Ant			L.Knee.Lat			L.Knee.Med			L.Shank.Upper.Post			L.Shank.Lower.Ant			L.Shank.Lower.Post			L.Shank.Upper.Ant			L.Ankle.Lat			L.Ankle.Med			L.Heel.Upper			L.Heel.Med			L.Heel.Lat			L.Toe.Lat			L.Toe.Med			L.Toe.Tip			Cervical.Spine			Back			
		X1	Y1	Z1	X2	Y2	Z2	X3	Y3	Z3	X4	Y4	Z4	X5	Y5	Z5	X6	Y6	Z6	X7	Y7	Z7	X8	Y8	Z8	X9	Y9	Z9	X10	Y10	Z10	X11	Y11	Z11	X12	Y12	Z12	X13	Y13	Z13	X14	Y14	Z14	X15	Y15	Z15	X16	Y16	Z16	X17	Y17	Z17	X18	Y18	Z18	X19	Y19	Z19	X20	Y20	Z20	X21	Y21	Z21	X22	Y22	Z22	X23	Y23	Z23	X24	Y24	Z24	X25	Y25	Z25	X26	Y26	Z26	X27	Y27	Z27	X28	Y28	Z28	X29	Y29	Z29	X30	Y30	Z30	X31	Y31	Z31	X32	Y32	Z32	X33	Y33	Z33	X34	Y34	Z34	X35	Y35	Z35	X36	Y36	Z36	X37	Y37	Z37	X38	Y38	Z38	X39	Y39	Z39	X40	Y40	Z40	X41	Y41	Z41	X42	Y42	Z42	X43	Y43	Z43	X44	Y44	Z44	X45	Y45	Z45	X46	Y46	Z46	X47	Y47	Z47	X48	Y48	Z48	X49	Y49	Z49	X50	Y50	Z50	X51	Y51	Z51	

361	1.5	714.66	1241.1	323.61	600.93	1472.4	482.65	596.47	1467.7	151.65	679.95	1763.5	323.85	661.06	1007.7	447.67	667.38	1002.3	195.45	462.76	1029.7	350.62	464.24	1032.6	269.88	608.81	944.33	498.75	576.95	941.65	134.72	578.4	1085.5	476.13	602.06	1079.3	158.55	449.48	995.92	312.86	688.97	706.33	515.17	769.79	647.46	489.36	707.31	619.35	501.9	751.71	737.16	494.96	756.03	516.89	496.99	764.96	514.9	370	645.24	317.46	507.26	680.45	236.58	485.23	615.81	246.2	495.84	708.69	307.55	496.89	596.63	112.79	474.38	611.34	113.62	386.36	522.5	74.666	428.48	531.53	43.787	397.63	529.21	43.276	463.22	704.58	36.232	507.2	734.46	44.422	387.5	799.6	54.537	436.43	715.72	704.97	114.86	791.63	641.25	163.89	729.29	614.77	122.68	769.18	733.83	155.49	735.79	519.8	129.65	767.4	519.46	247	631.12	321.13	126.5	673.15	242.73	126.69	604.41	253.11	140.08	695.49	310.41	119.38	596.29	110.56	134.91	609.07	109.97	226.35	517.85	71.824	178.52	524.9	45.467	211.01	521.55	45.933	149.08	697.26	46.953	100.29	726.54	44.252	217.3	794.29	58.778	158.8	556.64	1506.6	318.42	477.81	1245.1	316.42
362	1.5042	714.62	1241.1	323.59	600.92	1472.4	482.64	596.46	1467.7	151.64	679.91	1763.5	323.84	661.03	1007.7	447.66	667.34	1002.3	195.43	462.73	1029.7	350.61	464.2	1032.6	269.88	608.79	944.33	498.74	576.91	941.65	134.71	578.37	1085.6	476.12	602.02	1079.3	158.54	449.45	995.91	312.86	688.95	706.33	515.17	769.78	647.46	489.35	707.29	619.35	501.89	751.69	737.16	494.95	756.02	516.89	496.98	764.94	514.9	370	645.23	317.47	507.26	680.45	236.58	485.23	615.8	246.2	495.84	708.69	307.56	496.88	596.63	112.79	474.38	611.35	113.62	386.36	522.5	74.665	428.48	531.53	43.783	397.63	529.21	43.275	463.22	704.58	36.231	507.2	734.46	44.422	387.5	799.6	54.538	436.43	715.68	704.97	114.85	791.61	641.25	163.87	729.26	614.77	122.67	769.15	733.83	155.47	735.77	519.8	129.64	767.38	519.47	246.99	631.11	321.13	126.49	673.14	242.73	126.68	604.4	253.1	140.07	695.48	310.42	119.38	596.29	110.55	134.91	609.07	109.97	226.35	517.84	71.822	178.52	524.9	45.466	211.01	521.55	45.929	149.08	697.26	46.953	100.29	726.53	44.259	217.29	794.29	58.782	158.8	556.62	1506.6	318.41	477.78	1245.1	316.41
363	1.5083	714.59	1241.1	323.57	600.91	1472.4	482.63	596.45	1467.7	151.62	679.87	1763.5	323.83	661	1007.7	447.64	667.3	1002.3	195.42	462.69	1029.7	350.6	464.16	1032.6	269.88	608.76	944.33	498.73	576.86	941.64	134.7	578.35	1085.6	476.11	601.98	1079.3	158.53	449.41	995.9	312.86	688.93	706.33	515.16	769.76	647.46	489.34	707.27	619.35	501.89	751.67	737.17	494.94	756	516.89	496.97	764.93	514.91	369.99	645.23	317.47	507.26	680.44	236.58	485.22	615.8	246.2	495.84	708.68	307.56	496.87	596.63	112.79	474.38	611.35	113.62	386.36	522.49	74.664	428.48	531.53	43.779	397.63	529.21	43.273	463.22	704.58	36.231	507.2	734.46	44.422	387.5	799.6	54.539	436.43	715.65	704.97	114.84	791.58	641.26	163.86	729.23	614.77	122.66	769.11	733.84	155.45	735.75	519.8	129.63	767.37	519.47	246.98	631.1	321.13	126.49	673.13	242.73	126.68	604.4	253.1	140.06	695.47	310.42	119.37	596.29	110.55	134.91	609.06	109.97	226.35	517.84	71.82	178.52	524.9	45.464	211.01	521.55	45.926	149.08	697.25	46.954	100.29	726.53	44.266	217.29	794.29	58.786	158.8	556.61	1506.6	318.4	477.75	1245.1	316.39
364	1.5125	714.56	1241.1	323.55	600.91	1472.4	482.62	596.44	1467.7	151.61	679.83	1763.5	323.82	660.98	1007.7	447.63	667.26	1002.2	195.4	462.65	1029.7	350.59	464.12	1032.6	269.87	608.74	944.33	498.72	576.82	941.63	134.7	578.33	1085.6	476.1	601.94	1079.3	158.52	449.37	995.9	312.87	688.91	706.33	515.15	769.74	647.47	489.32	707.26	619.36	501.88	751.65	737.17	494.94	755.99	516.9	496.96	764.91	514.91	369.98	645.22	317.47	507.26	680.43	236.59	485.21	615.79	246.2	495.84	708.67	307.56	496.87	596.64	112.79	474.39	611.36	113.62	386.36	522.49	74.663	428.48	531.52	43.775	397.63	529.2	43.272	463.22	704.58	36.231	507.2	734.46	44.422	387.5	799.6	54.54	436.43	715.61	704.97	114.83	791.55	641.26	163.84	729.2	614.77	122.65	769.08	733.84	155.44	735.73	519.8	129.62	767.35	519.48	246.97	631.09	321.12	126.48	673.12	242.73	126.67	604.39	253.1	140.06	695.45	310.42	119.37	596.29	110.55	134.9	609.06	109.97	226.35	517.84	71.818	178.52	524.9	45.463	211.01	521.55	45.922	149.08	697.25	46.954	100.29	726.53	44.272	217.29	794.29	58.789	158.8	556.59	1506.7	318.4	477.72	1245.1	316.38
365	1.5167	714.52	1241.1	323.53	600.9	1472.4	482.6	596.43	1467.7	151.6	679.79	1763.5	323.81	660.95	1007.7	447.62	667.21	1002.2	195.39	462.61	1029.7	350.58	464.08	1032.6	269.87	608.72	944.34	498.72	576.77	941.63	134.69	578.31	1085.6	476.09	601.91	1079.3	158.5	449.33	995.89	312.87	688.9	706.33	515.14	769.72	647.47	489.31	707.24	619.36	501.87	751.63	737.17	494.93	755.97	516.9	496.95	764.89	514.92	369.97	645.21	317.47	507.25	680.43	236.59	485.21	615.78	246.2	495.83	708.66	307.56	496.86	596.64	112.79	474.39	611.36	113.62	386.36	522.49	74.662	428.48	531.52	43.771	397.63	529.2	43.271	463.22	704.58	36.231	507.2	734.46	44.422	387.5	799.59	54.54	436.43	715.57	704.97	114.82	791.52	641.27	163.83	729.16	614.77	122.64	769.04	733.85	155.42	735.71	519.8	129.61	767.34	519.49	246.96	631.07	321.12	126.47	673.11	242.73	126.67	604.38	253.1	140.05	695.44	310.42	119.36	596.28	110.55	134.9	609.06	109.97	226.34	517.84	71.817	178.52	524.9	45.461	211.01	521.55	45.919	149.07	697.25	46.955	100.29	726.53	44.279	217.29	794.29	58.792	158.8	556.57	1506.7	318.39	477.68	1245.1	316.37
